<?xml version="1.0" ?><svg data-name="Design Convert" id="Design_Convert" viewBox="0 0 64 64" xmlns="http://www.w3.org/2000/svg"><defs><style>.cls-1{fill:#010101;}</style></defs><title/><path class="cls-1" d="M30,28H9a1,1,0,0,1,0-2H30a1,1,0,0,1,0,2Z"/><path class="cls-1" d="M36,57a1,1,0,0,1-.53-.15A1,1,0,0,1,35,56V18a1,1,0,0,1,.57-.9L52.66,9H45a1,1,0,0,1,0-2h9a3,3,0,0,1,3,3V44.76a3,3,0,0,1-1.66,2.69L36.45,56.89A1,1,0,0,1,36,57Zm1-38.37V54.38l17.45-8.72a1,1,0,0,0,.55-.9V10.11Z"/><path class="cls-1" d="M17,37a1,1,0,0,1-.71-.29l-9-9a1,1,0,0,1,0-1.42l9-9a1,1,0,0,1,1.42,1.42L9.41,27l8.3,8.29a1,1,0,0,1,0,1.42A1,1,0,0,1,17,37Z"/><path class="cls-1" d="M36,47H27a3,3,0,0,1-3-3V36a1,1,0,0,1,2,0v8a1,1,0,0,0,1,1h9a1,1,0,0,1,0,2Z"/><path class="cls-1" d="M25,19a1,1,0,0,1-1-1V10a3,3,0,0,1,3-3H49a1,1,0,0,1,0,2H27a1,1,0,0,0-1,1v8A1,1,0,0,1,25,19Z"/></svg>