<?xml version="1.0" encoding="UTF-8" standalone="no"?>
<!DOCTYPE svg PUBLIC "-//W3C//DTD SVG 1.1//EN"
 "http://www.w3.org/Graphics/SVG/1.1/DTD/svg11.dtd">
<!-- Generated by graphviz version 2.46.0 (20210119.1425)
 -->
<!-- Title: dependencies Pages: 1 -->
<svg width="1499pt" height="284pt"
 viewBox="0.00 0.00 1499.00 284.00" xmlns="http://www.w3.org/2000/svg" xmlns:xlink="http://www.w3.org/1999/xlink">
<g id="graph0" class="graph" transform="scale(1 1) rotate(0) translate(4 280)">
<title>dependencies</title>
<polygon fill="white" stroke="transparent" points="-4,4 -4,-280 1495,-280 1495,4 -4,4"/>
<text text-anchor="start" x="724.51" y="-42.4" font-family="sans-serif" font-weight="bold" font-size="14.00">Legend</text>
<polygon fill="#ffffb3" stroke="transparent" points="511.5,-10 511.5,-30 531.5,-30 531.5,-10 511.5,-10"/>
<text text-anchor="start" x="535.13" y="-15.4" font-family="sans-serif" font-size="14.00"> &#160;Declarations</text>
<polygon fill="#8dd3c7" stroke="transparent" points="624.5,-10 624.5,-30 644.5,-30 644.5,-10 624.5,-10"/>
<text text-anchor="start" x="648.23" y="-15.4" font-family="sans-serif" font-size="14.00"> &#160;Module</text>
<polygon fill="#80b1d3" stroke="transparent" points="710.5,-10 710.5,-30 730.5,-30 730.5,-10 710.5,-10"/>
<text text-anchor="start" x="734.28" y="-15.4" font-family="sans-serif" font-size="14.00"> &#160;Bootstrap</text>
<polygon fill="#fdb462" stroke="transparent" points="807.5,-10 807.5,-30 827.5,-30 827.5,-10 807.5,-10"/>
<text text-anchor="start" x="831.17" y="-15.4" font-family="sans-serif" font-size="14.00"> &#160;Providers</text>
<polygon fill="#fb8072" stroke="transparent" points="903.5,-10 903.5,-30 923.5,-30 923.5,-10 903.5,-10"/>
<text text-anchor="start" x="927.23" y="-15.4" font-family="sans-serif" font-size="14.00"> &#160;Exports</text>
<g id="clust1" class="cluster">
<title>cluster_AppModule</title>
<polygon fill="none" stroke="black" stroke-dasharray="1,5" points="8,-70 8,-268 1483,-268 1483,-70 8,-70"/>
</g>
<g id="clust12" class="cluster">
<title>cluster_AppModule_imports</title>
<polygon fill="none" stroke="black" points="1331,-78 1331,-130 1475,-130 1475,-78 1331,-78"/>
</g>
<g id="clust2" class="cluster">
<title>cluster_AppModule_declarations</title>
<polygon fill="none" stroke="black" points="16,-78 16,-130 1323,-130 1323,-78 16,-78"/>
</g>
<g id="clust14" class="cluster">
<title>cluster_AppModule_bootstrap</title>
<polygon fill="none" stroke="black" points="671,-208 671,-260 795,-260 795,-208 671,-208"/>
</g>
<!-- AlertasComponent -->
<g id="node1" class="node">
<title>AlertasComponent</title>
<polygon fill="#ffffb3" stroke="black" points="1314.75,-122 1193.25,-122 1193.25,-86 1314.75,-86 1314.75,-122"/>
<text text-anchor="middle" x="1254" y="-99.8" font-family="Times,serif" font-size="14.00">AlertasComponent</text>
</g>
<!-- AppModule -->
<g id="node10" class="node">
<title>AppModule</title>
<polygon fill="#8dd3c7" stroke="black" points="774.66,-187 771.66,-191 750.66,-191 747.66,-187 691.34,-187 691.34,-151 774.66,-151 774.66,-187"/>
<text text-anchor="middle" x="733" y="-164.8" font-family="Times,serif" font-size="14.00">AppModule</text>
</g>
<!-- AlertasComponent&#45;&gt;AppModule -->
<g id="edge1" class="edge">
<title>AlertasComponent&#45;&gt;AppModule</title>
<path fill="none" stroke="black" d="M1254,-122.13C1254,-142.57 1254,-173 1254,-173 1254,-173 784.75,-173 784.75,-173"/>
<polygon fill="black" stroke="black" points="784.75,-169.5 774.75,-173 784.75,-176.5 784.75,-169.5"/>
</g>
<!-- AppComponent -->
<g id="node2" class="node">
<title>AppComponent</title>
<polygon fill="#ffffb3" stroke="black" points="1174.94,-122 1069.06,-122 1069.06,-86 1174.94,-86 1174.94,-122"/>
<text text-anchor="middle" x="1122" y="-99.8" font-family="Times,serif" font-size="14.00">AppComponent</text>
</g>
<!-- AppComponent&#45;&gt;AppModule -->
<g id="edge2" class="edge">
<title>AppComponent&#45;&gt;AppModule</title>
<path fill="none" stroke="black" d="M1122,-122.27C1122,-140.56 1122,-166 1122,-166 1122,-166 785,-166 785,-166"/>
<polygon fill="black" stroke="black" points="785,-162.5 775,-166 785,-169.5 785,-162.5"/>
</g>
<!-- CadastrarComponent -->
<g id="node3" class="node">
<title>CadastrarComponent</title>
<polygon fill="#ffffb3" stroke="black" points="1051.47,-122 916.53,-122 916.53,-86 1051.47,-86 1051.47,-122"/>
<text text-anchor="middle" x="984" y="-99.8" font-family="Times,serif" font-size="14.00">CadastrarComponent</text>
</g>
<!-- CadastrarComponent&#45;&gt;AppModule -->
<g id="edge3" class="edge">
<title>CadastrarComponent&#45;&gt;AppModule</title>
<path fill="none" stroke="black" d="M984,-122.01C984,-138.05 984,-159 984,-159 984,-159 784.73,-159 784.73,-159"/>
<polygon fill="black" stroke="black" points="784.73,-155.5 774.73,-159 784.73,-162.5 784.73,-155.5"/>
</g>
<!-- EditPostagemComponent -->
<g id="node4" class="node">
<title>EditPostagemComponent</title>
<polygon fill="#ffffb3" stroke="black" points="898.6,-122 739.4,-122 739.4,-86 898.6,-86 898.6,-122"/>
<text text-anchor="middle" x="819" y="-99.8" font-family="Times,serif" font-size="14.00">EditPostagemComponent</text>
</g>
<!-- EditPostagemComponent&#45;&gt;AppModule -->
<g id="edge4" class="edge">
<title>EditPostagemComponent&#45;&gt;AppModule</title>
<path fill="none" stroke="black" d="M757.14,-122.11C757.14,-122.11 757.14,-140.99 757.14,-140.99"/>
<polygon fill="black" stroke="black" points="753.64,-140.99 757.14,-150.99 760.64,-140.99 753.64,-140.99"/>
</g>
<!-- EditUsuarioComponent -->
<g id="node5" class="node">
<title>EditUsuarioComponent</title>
<polygon fill="#ffffb3" stroke="black" points="721.48,-122 572.52,-122 572.52,-86 721.48,-86 721.48,-122"/>
<text text-anchor="middle" x="647" y="-99.8" font-family="Times,serif" font-size="14.00">EditUsuarioComponent</text>
</g>
<!-- EditUsuarioComponent&#45;&gt;AppModule -->
<g id="edge5" class="edge">
<title>EditUsuarioComponent&#45;&gt;AppModule</title>
<path fill="none" stroke="black" d="M706.33,-122.11C706.33,-122.11 706.33,-140.99 706.33,-140.99"/>
<polygon fill="black" stroke="black" points="702.83,-140.99 706.33,-150.99 709.83,-140.99 702.83,-140.99"/>
</g>
<!-- EntrarComponent -->
<g id="node6" class="node">
<title>EntrarComponent</title>
<polygon fill="#ffffb3" stroke="black" points="554.31,-122 437.69,-122 437.69,-86 554.31,-86 554.31,-122"/>
<text text-anchor="middle" x="496" y="-99.8" font-family="Times,serif" font-size="14.00">EntrarComponent</text>
</g>
<!-- EntrarComponent&#45;&gt;AppModule -->
<g id="edge6" class="edge">
<title>EntrarComponent&#45;&gt;AppModule</title>
<path fill="none" stroke="black" d="M496,-122.01C496,-138.05 496,-159 496,-159 496,-159 681.17,-159 681.17,-159"/>
<polygon fill="black" stroke="black" points="681.17,-162.5 691.17,-159 681.17,-155.5 681.17,-162.5"/>
</g>
<!-- HomeComponent -->
<g id="node7" class="node">
<title>HomeComponent</title>
<polygon fill="#ffffb3" stroke="black" points="419.55,-122 304.45,-122 304.45,-86 419.55,-86 419.55,-122"/>
<text text-anchor="middle" x="362" y="-99.8" font-family="Times,serif" font-size="14.00">HomeComponent</text>
</g>
<!-- HomeComponent&#45;&gt;AppModule -->
<g id="edge7" class="edge">
<title>HomeComponent&#45;&gt;AppModule</title>
<path fill="none" stroke="black" d="M362,-122.27C362,-140.56 362,-166 362,-166 362,-166 681.16,-166 681.16,-166"/>
<polygon fill="black" stroke="black" points="681.16,-169.5 691.16,-166 681.16,-162.5 681.16,-169.5"/>
</g>
<!-- PerfilComponent -->
<g id="node8" class="node">
<title>PerfilComponent</title>
<polygon fill="#ffffb3" stroke="black" points="286.43,-122 173.57,-122 173.57,-86 286.43,-86 286.43,-122"/>
<text text-anchor="middle" x="230" y="-99.8" font-family="Times,serif" font-size="14.00">PerfilComponent</text>
</g>
<!-- PerfilComponent&#45;&gt;AppModule -->
<g id="edge8" class="edge">
<title>PerfilComponent&#45;&gt;AppModule</title>
<path fill="none" stroke="black" d="M230,-122.13C230,-142.57 230,-173 230,-173 230,-173 680.98,-173 680.98,-173"/>
<polygon fill="black" stroke="black" points="680.98,-176.5 690.98,-173 680.98,-169.5 680.98,-176.5"/>
</g>
<!-- PrincipalComponent -->
<g id="node9" class="node">
<title>PrincipalComponent</title>
<polygon fill="#ffffb3" stroke="black" points="155.88,-122 24.12,-122 24.12,-86 155.88,-86 155.88,-122"/>
<text text-anchor="middle" x="90" y="-99.8" font-family="Times,serif" font-size="14.00">PrincipalComponent</text>
</g>
<!-- PrincipalComponent&#45;&gt;AppModule -->
<g id="edge9" class="edge">
<title>PrincipalComponent&#45;&gt;AppModule</title>
<path fill="none" stroke="black" d="M90,-122.01C90,-144.49 90,-180 90,-180 90,-180 681.31,-180 681.31,-180"/>
<polygon fill="black" stroke="black" points="681.31,-183.5 691.31,-180 681.31,-176.5 681.31,-183.5"/>
</g>
<!-- AppComponent  -->
<g id="node12" class="node">
<title>AppComponent </title>
<polygon fill="#80b1d3" stroke="black" points="787.44,-252 678.56,-252 678.56,-216 787.44,-216 787.44,-252"/>
<text text-anchor="middle" x="733" y="-229.8" font-family="Times,serif" font-size="14.00">AppComponent </text>
</g>
<!-- AppModule&#45;&gt;AppComponent  -->
<g id="edge11" class="edge">
<title>AppModule&#45;&gt;AppComponent </title>
<path fill="none" stroke="black" stroke-dasharray="1,5" d="M733,-187.11C733,-187.11 733,-205.99 733,-205.99"/>
<polygon fill="black" stroke="black" points="729.5,-205.99 733,-215.99 736.5,-205.99 729.5,-205.99"/>
</g>
<!-- AppRoutingModule -->
<g id="node11" class="node">
<title>AppRoutingModule</title>
<polygon fill="#8dd3c7" stroke="black" points="1467.27,-122 1464.27,-126 1443.27,-126 1440.27,-122 1338.73,-122 1338.73,-86 1467.27,-86 1467.27,-122"/>
<text text-anchor="middle" x="1403" y="-99.8" font-family="Times,serif" font-size="14.00">AppRoutingModule</text>
</g>
<!-- AppRoutingModule&#45;&gt;AppModule -->
<g id="edge10" class="edge">
<title>AppRoutingModule&#45;&gt;AppModule</title>
<path fill="none" stroke="black" d="M1403,-122.01C1403,-144.49 1403,-180 1403,-180 1403,-180 784.66,-180 784.66,-180"/>
<polygon fill="black" stroke="black" points="784.66,-176.5 774.66,-180 784.66,-183.5 784.66,-176.5"/>
</g>
</g>
</svg>
