<?xml version="1.0" ?><svg id="Facebook" style="enable-background:new 0 0 64 64;" version="1.1" viewBox="0 0 64 64" xml:space="preserve" xmlns="http://www.w3.org/2000/svg" xmlns:xlink="http://www.w3.org/1999/xlink"><g><g id="XMLID_2_"><g><path d="M53,8v14H39c0,0-4,0-4,3c0,0.43,0,0.75,0,1v0.65V32h12l-2,14H35v17H21V46h-9l-1-14h10v-6V16     c0,0,0-8,9-8S53,8,53,8z" style="fill:#E7ECED;"/><path d="M63,10v44c0,4.97-4.03,9-9,9H35V46h10l2-14H35v-5.35V26c0-0.25,0-0.57,0-1c0-3,4-3,4-3h14V8     c0,0-14,0-23,0s-9,8-9,8v10v6H11l1,14h9v17H10c-4.97,0-9-4.03-9-9V10c0-4.97,4.03-9,9-9h44C58.97,1,63,5.03,63,10z" style="fill:#0063BC;"/></g><g><path d="M35,63V46h10l2-14H35     v-5.35V26c0-0.25,0-0.57,0-1c0-3,4-3,4-3h14V8c0,0-14,0-23,0s-9,8-9,8v10v6H11l1,14h9v17" style="fill:none;stroke:#000000;stroke-width:2;stroke-linejoin:round;stroke-miterlimit:10;"/><path d="M35,63h19     c4.97,0,9-4.03,9-9V10c0-4.97-4.03-9-9-9H10c-4.97,0-9,4.03-9,9v44c0,4.97,4.03,9,9,9h11H35z" style="fill:none;stroke:#000000;stroke-width:2;stroke-linejoin:round;stroke-miterlimit:10;"/><path d="M11,5c0,0-6,0-6,7" style="fill:none;stroke:#000000;stroke-width:2;stroke-linejoin:round;stroke-miterlimit:10;"/></g></g></g></svg>